PathFileType	4	(X/Y/Z)	C:/Users/opensim2020/Desktop/walking_exp_matlab/subject03_walking14_straight_01.trc	
DataRate	CameraRate	NumFrames	NumMarkers	Units	OrigDataRate	OrigDataStartFrame	OrigNumFrames	
100.00	100.00	6	47	mm	100.00	655	205	
Frame#	Time	LFHD			RFHD			LBHD			RBHD			C7			T10			CLAV			STRN			RBAK			LSHO			LUPA			LELB			LFRM			LWRA			LWRB			LFIN			RSHO			RUPA			RELB			RFRM			RWRA			RWRB			RFIN			LASI			RASI			LPSI			RPSI			LTHI			LKNE			LTIB			LANK			LHEE			LTOE			RTHI			RKNE			RTIB			RANK			RHEE			RTOE			*39			*40			*41			*42			*43			*44			*45			*46			
		X1	Y1	Z1	X2	Y2	Z2	X3	Y3	Z3	X4	Y4	Z4	X5	Y5	Z5	X6	Y6	Z6	X7	Y7	Z7	X8	Y8	Z8	X9	Y9	Z9	X10	Y10	Z10	X11	Y11	Z11	X12	Y12	Z12	X13	Y13	Z13	X14	Y14	Z14	X15	Y15	Z15	X16	Y16	Z16	X17	Y17	Z17	X18	Y18	Z18	X19	Y19	Z19	X20	Y20	Z20	X21	Y21	Z21	X22	Y22	Z22	X23	Y23	Z23	X24	Y24	Z24	X25	Y25	Z25	X26	Y26	Z26	X27	Y27	Z27	X28	Y28	Z28	X29	Y29	Z29	X30	Y30	Z30	X31	Y31	Z31	X32	Y32	Z32	X33	Y33	Z33	X34	Y34	Z34	X35	Y35	Z35	X36	Y36	Z36	X37	Y37	Z37	X38	Y38	Z38	X39	Y39	Z39	X40	Y40	Z40	X41	Y41	Z41	X42	Y42	Z42	X43	Y43	Z43	X44	Y44	Z44	X45	Y45	Z45	X46	Y46	Z46	X47	Y47	Z47	

180	1.790	1377.07507	908.43274	1612.54346	1509.59656	907.80371	1624.65173	1384.39893	782.90894	1563.14758	1514.39709	787.09009	1574.58899	1447.78760	761.36877	1404.33423	1454.87219	744.18164	1090.27563	1451.26489	885.64197	1334.15625	1444.94409	939.22491	1171.71130	1538.94775	716.65021	1224.79126	1297.00452	839.76929	1369.12012	1227.35193	888.60333	1185.20276	1222.24561	943.87683	1075.11731	1244.28162	1035.77820	987.92511	1297.51306	1114.20264	911.41302	1246.03149	1102.39209	894.65393	1271.40625	1164.91467	845.11987	1609.69617	832.03864	1357.52100	1684.58899	807.05835	1137.94617	1698.68701	805.62024	1024.58032	1705.48999	794.74109	887.74298	1673.21802	804.22992	785.88190	1717.64636	772.03461	789.45105	1706.55505	775.34186	712.96240	1329.95618	900.04419	929.27948	1566.60913	919.78064	933.65601	1393.59802	743.75421	953.86993	1541.35596	755.93646	957.70898	1314.03271	802.22644	631.50439	1362.91516	769.36298	458.75778	1373.35193	670.20972	285.71097	1427.29639	595.30011	92.20156	1465.69189	548.49884	67.80318	1444.67590	738.03650	34.60583	1625.94690	930.17554	643.93359	1592.10999	1007.92041	483.07135	1605.41223	1027.24573	297.08331	1570.96741	1081.75806	84.03301	1518.94971	1048.77588	41.78175	1549.53528	1225.70911	77.51569	1427.36450	822.67151	1671.37573																					 
181	1.800	1376.81189	920.97241	1611.02478	1509.34155	920.45642	1623.04211	1384.25439	795.47852	1561.32666	1514.27710	799.83704	1572.73462	1448.14648	774.42352	1402.56665	1456.02393	756.85150	1088.64038	1450.77673	898.60156	1332.39197	1443.95667	952.14557	1169.91858	1539.27576	730.02570	1223.02075	1296.77185	852.05261	1367.27954	1227.17834	902.08472	1184.07568	1222.43030	958.92932	1074.95642	1245.60181	1052.54272	990.50476	1300.16760	1132.57703	916.81934	1248.59961	1121.85095	899.35083	1274.65369	1185.86377	852.40387	1609.45557	845.79565	1355.79138	1684.15686	819.71375	1136.29089	1698.38501	817.61255	1022.93524	1705.10571	805.42194	886.15582	1672.82837	813.68854	784.03564	1717.43591	781.72174	788.15173	1705.98999	783.39532	711.45819	1329.05139	911.17029	927.45111	1565.63672	934.09503	931.74304	1395.35730	755.79510	952.16290	1543.04346	770.07800	956.00854	1313.67383	811.76404	630.79718	1362.19055	777.57147	458.26477	1372.89331	675.23999	286.63120	1427.09009	596.59827	94.65210	1465.56665	549.34546	71.06235	1444.53442	738.18506	34.51854	1627.75818	939.89905	640.62866	1591.21057	1019.94543	480.59039	1605.20361	1046.92749	297.18579	1571.02222	1109.07275	85.99760	1519.40710	1077.43494	42.08228	1549.28235	1253.35803	84.76580	1427.16785	835.08112	1669.65637																					 
182	1.810	1376.51208	933.54822	1609.56311	1509.10303	933.19873	1621.52893	1384.12915	808.18695	1559.62390	1514.17969	812.69653	1570.91833	1448.08716	787.43781	1400.83337	1457.20349	769.72595	1086.97473	1450.27222	911.65039	1330.68176	1443.09924	965.23993	1168.25903	1539.54541	743.47095	1221.22632	1296.54077	864.36200	1365.52759	1226.94043	915.30920	1182.84497	1222.47424	973.44763	1074.59131	1246.83191	1068.78845	992.89105	1302.70190	1150.31213	922.04132	1250.96594	1140.67517	903.92963	1277.76697	1205.96643	859.55853	1609.21387	859.52948	1354.07446	1683.78113	832.65979	1134.61658	1698.08069	829.96069	1021.24945	1704.87378	816.64185	884.57544	1672.65308	823.84399	782.26978	1717.33386	791.97870	786.81165	1705.58496	792.05170	709.93335	1328.42859	922.95074	925.98108	1564.69910	948.32520	929.84265	1397.11902	768.09729	950.35278	1544.61267	784.22900	954.32001	1313.18250	821.62012	630.07794	1361.38013	786.08514	457.27963	1372.44360	680.59314	287.60217	1426.76221	598.03192	97.19302	1465.23462	550.43298	74.72755	1444.48267	738.16949	34.34410	1629.41211	950.62915	637.74677	1590.44324	1033.12744	478.85989	1605.05261	1065.50537	297.48346	1570.46057	1132.73718	87.40617	1518.40417	1102.18823	42.59492	1548.69312	1277.31360	89.68613	1426.71667	847.50385	1668.01111																					 
183	1.820	1376.18726	946.10492	1608.17871	1508.80823	945.98151	1620.03711	1384.00269	820.90778	1557.95435	1514.05530	825.61292	1569.20215	1448.19849	800.41577	1399.24060	1458.22803	783.12927	1085.36169	1449.80627	924.73499	1329.08264	1442.33020	978.38794	1166.68774	1539.93726	756.90729	1219.51953	1296.25488	876.66583	1363.81970	1226.70911	928.27075	1181.61926	1222.47473	987.52167	1074.09875	1248.00134	1084.47644	995.23633	1304.88599	1167.23071	926.75500	1253.24268	1158.65552	908.30463	1280.56543	1225.17859	866.49939	1609.00732	873.34430	1352.44202	1683.44360	845.99451	1132.99683	1697.68774	842.77087	1019.57813	1704.70886	828.38232	883.07739	1672.60022	834.58929	780.56622	1717.18994	802.81964	785.37585	1705.32019	801.45282	708.47290	1327.94556	935.01617	924.55695	1563.90881	962.48749	928.02161	1398.77039	780.82593	948.49011	1546.15295	798.34613	952.70319	1312.72705	831.87103	629.37921	1360.25427	795.35168	456.35339	1371.82581	686.57166	288.60004	1426.30774	599.86804	100.10454	1464.77771	551.71960	78.66592	1444.42444	738.36005	34.27269	1630.06885	963.30780	635.64282	1589.80579	1047.27576	477.88098	1604.65234	1082.35693	297.30948	1569.74133	1152.29834	87.88445	1518.00232	1122.31494	42.45438	1547.29236	1297.01721	92.20090	1425.34497	860.25452	1666.13867																					 
184	1.830	1375.85522	958.69556	1606.83020	1508.47229	958.85223	1618.64221	1383.96912	833.46057	1556.41760	1513.92847	838.59143	1567.57544	1448.31165	813.39642	1397.53418	1458.73340	795.70251	1083.64709	1449.33801	937.87622	1327.52222	1441.71057	991.69147	1165.21399	1540.31079	770.44946	1217.93176	1295.97559	889.03156	1362.24414	1226.38794	940.89758	1180.28552	1222.34241	1001.09906	1073.51941	1249.04810	1099.55042	997.34613	1306.85974	1183.52441	931.37354	1255.16882	1175.98901	912.56909	1283.11890	1243.54688	873.16205	1608.83252	887.17706	1350.88867	1683.12195	859.69232	1131.46582	1697.39075	856.05615	1018.03925	1704.60327	840.75159	881.61011	1672.60706	846.03864	778.90741	1717.36414	814.42151	784.14880	1705.18958	811.64368	707.16504	1327.71741	947.45465	923.18555	1563.42249	976.50189	926.40717	1400.14026	793.70532	947.08868	1547.33594	812.37244	951.33997	1312.17615	842.66156	628.66278	1359.00012	805.18292	455.28229	1371.06250	692.98724	289.63556	1425.70239	601.99512	103.29110	1464.23499	553.42072	83.19545	1444.59326	738.52844	34.14751	1629.74829	978.58545	634.69214	1589.28906	1062.31824	477.59781	1604.31287	1097.78735	296.66849	1569.11438	1167.61658	87.15956	1517.92224	1137.25891	41.49974	1544.94080	1312.19531	91.77121	1427.08801	872.92914	1664.35461																					 
185	1.840	1375.43408	971.38226	1605.58313	1508.08643	971.77472	1617.31519	1383.80029	846.21399	1554.79480	1513.80298	851.61127	1565.97021	1448.42493	826.47949	1396.11023	1459.12878	809.04791	1082.26978	1448.94141	951.05573	1326.09729	1441.31873	1005.11877	1163.86084	1541.14844	784.25055	1216.51501	1295.65381	901.30023	1360.76294	1226.10303	953.26556	1178.84705	1222.23938	1013.96564	1072.71570	1249.69934	1114.01953	999.15009	1308.66479	1199.16309	935.82800	1256.88550	1192.48511	916.53308	1285.35583	1261.03796	879.49683	1608.63477	901.01447	1349.44336	1682.93335	873.69885	1129.96863	1697.10889	869.74261	1016.56696	1704.57690	853.69354	880.25916	1672.73621	858.16077	777.40717	1717.63354	826.72797	782.90204	1705.22473	822.61743	705.88684	1327.54260	960.37170	921.75641	1563.34058	990.55286	925.18201	1401.09485	807.20502	945.47211	1548.08496	826.31000	950.14758	1311.73291	854.16290	627.73889	1357.60791	816.00568	454.26672	1370.22009	700.10724	290.55301	1425.01746	604.24426	106.53766	1463.44702	555.35004	88.03085	1444.51550	738.71271	33.91773	1628.68628	995.77777	634.89429	1588.49048	1078.42163	478.08109	1603.69629	1111.86694	295.54794	1568.75037	1179.24866	85.54787	1517.86755	1147.44983	39.76593	1542.06836	1323.28125	88.41891	1426.91528	885.54181	1662.84924																					 
